<svg width="16" height="15" viewBox="0 0 16 15" fill="none" xmlns="http://www.w3.org/2000/svg">
<path d="M8.00035 1.24981C7.12628 0.446102 5.98221 3.73448e-05 4.7948 0C4.16631 0.000654349 3.54416 0.125591 2.96415 0.367619C2.38413 0.609647 1.85771 0.963988 1.41517 1.41025C-0.47239 3.30583 -0.471588 6.27073 1.41677 8.15828L7.29843 14.0399C7.43481 14.2798 7.69793 14.4346 8.00035 14.4346C8.12453 14.4334 8.24669 14.4031 8.35703 14.3461C8.46737 14.2891 8.56281 14.2071 8.63569 14.1065L14.5839 8.15828C16.4723 6.26992 16.4723 3.30583 14.5823 1.40704C14.14 0.9616 13.614 0.607978 13.0346 0.366508C12.4551 0.125037 11.8337 0.000480999 11.2059 0C10.0185 0.000194097 8.8745 0.446237 8.00035 1.24981ZM13.448 2.54134C14.7019 3.80158 14.7027 5.77016 13.4496 7.02398L8.00035 12.4733L2.55107 7.02398C1.29805 5.77016 1.29885 3.80158 2.54946 2.54455C3.15913 1.93809 3.95651 1.60438 4.7948 1.60438C5.63309 1.60438 6.42725 1.93809 7.03211 2.54295L7.4332 2.94404C7.50764 3.0186 7.59604 3.07775 7.69336 3.11811C7.79068 3.15847 7.895 3.17924 8.00035 3.17924C8.10571 3.17924 8.21003 3.15847 8.30734 3.11811C8.40466 3.07775 8.49307 3.0186 8.5675 2.94404L8.9686 2.54295C10.1815 1.33244 12.2367 1.33565 13.448 2.54134Z" fill="#585858"/>
</svg>
