<svg width="16" height="16" viewBox="0 0 16 16" fill="none" xmlns="http://www.w3.org/2000/svg">
<path d="M6.98674 12.9735C8.31503 12.9732 9.60505 12.5285 10.6514 11.7103L13.9411 15L14.9993 13.9418L11.7095 10.6521C12.5282 9.60569 12.9732 8.31538 12.9735 6.98674C12.9735 3.6858 10.2877 1 6.98674 1C3.6858 1 1 3.6858 1 6.98674C1 10.2877 3.6858 12.9735 6.98674 12.9735ZM6.98674 2.49669C9.46301 2.49669 11.4768 4.51048 11.4768 6.98674C11.4768 9.46301 9.46301 11.4768 6.98674 11.4768C4.51048 11.4768 2.49669 9.46301 2.49669 6.98674C2.49669 4.51048 4.51048 2.49669 6.98674 2.49669Z" fill="#E70013"/>
</svg>
