<svg width="339" height="172" viewBox="0 0 339 172" fill="none" xmlns="http://www.w3.org/2000/svg">
<path d="M23.9822 16.42H36.8822V49H48.7622V16.42H61.6022V7H23.9822V16.42ZM66.0281 7V49H77.9081V32.62H94.1081V49H105.988V7H94.1081V22.78H77.9081V7H66.0281ZM114.368 49H148.088V39.82H126.128V32.14H144.788V23.26H126.128V16.18H147.308V7H114.368V49ZM193.081 49.84C200.761 49.84 207.061 47.02 211.141 41.92L203.581 35.08C200.881 38.38 197.581 40 193.681 40C186.781 40 181.981 35.14 181.981 28C181.981 20.86 186.781 16 193.681 16C197.581 16 200.881 17.62 203.581 20.92L211.141 14.08C207.061 8.98 200.761 6.16 193.081 6.16C188.701 6.16 184.741 7.06 181.261 8.92C174.241 12.64 169.981 19.6 169.981 28C169.981 32.2 171.001 35.98 172.981 39.28C177.001 45.94 184.261 49.84 193.081 49.84ZM216.438 49H228.318V7H216.438V49ZM232.81 16.42H245.71V49H257.59V16.42H270.43V7H232.81V16.42ZM288.476 33.76V49H300.356V33.94L316.436 7H304.916L294.956 23.68L284.996 7H272.456L288.476 33.76ZM25.4269 103.84C29.8669 103.84 33.8869 102.88 37.4269 101.02C44.5069 97.24 48.7669 90.34 48.7669 82C48.7669 77.86 47.7469 74.08 45.7669 70.78C41.6869 64.12 34.3069 60.16 25.4269 60.16C20.9869 60.16 17.0269 61.12 13.4869 62.98C6.40688 66.76 2.08688 73.66 2.08688 82C2.08688 86.14 3.10688 89.92 5.14688 93.22C9.16688 99.88 16.5469 103.84 25.4269 103.84ZM25.4269 94C19.0669 94 14.0869 89.14 14.0869 82C14.0869 74.86 19.0669 70 25.4269 70C31.7869 70 36.7669 74.86 36.7669 82C36.7669 89.14 31.7869 94 25.4269 94ZM54.9891 61V103H66.8691V88.6H85.4091V79.42H66.8691V70.18H87.9291V61H54.9891ZM125.706 103.84C137.826 103.84 144.306 97.78 144.306 90.28C144.306 87.34 143.526 85.06 142.026 83.32C140.466 81.64 138.666 80.38 136.566 79.6C134.466 78.82 131.766 78.1 128.586 77.44C122.886 76.24 120.486 75.4 120.486 73.18C120.486 70.96 122.526 69.4 127.266 69.4C131.046 69.4 134.886 70.48 138.906 72.64L142.566 63.82C138.486 61.42 132.846 60.16 127.326 60.16C115.146 60.16 108.726 66.1 108.726 73.78C108.726 76.72 109.506 79 111.006 80.74C112.506 82.48 114.366 83.68 116.466 84.46C118.566 85.24 121.206 86.02 124.386 86.68C130.146 87.94 132.606 88.78 132.606 91.18C132.606 93.46 130.326 94.6 125.766 94.6C120.966 94.6 115.686 92.92 111.906 90.46L108.006 99.22C109.986 100.6 112.626 101.74 115.806 102.58C118.986 103.42 122.286 103.84 125.706 103.84ZM160.774 103V81.34L171.514 98.86H176.794L187.594 80.74L187.714 103H198.634L198.514 61H188.734L174.334 85.24L159.574 61H149.794V103H160.774ZM207.04 103H218.92V61H207.04V103ZM227.372 103H259.292V93.58H239.252V61H227.372V103ZM263.993 103H297.713V93.82H275.753V86.14H294.413V77.26H275.753V70.18H296.933V61H263.993V103ZM319.065 103.84C331.185 103.84 337.665 97.78 337.665 90.28C337.665 87.34 336.885 85.06 335.385 83.32C333.825 81.64 332.025 80.38 329.925 79.6C327.825 78.82 325.125 78.1 321.945 77.44C316.245 76.24 313.845 75.4 313.845 73.18C313.845 70.96 315.885 69.4 320.625 69.4C324.405 69.4 328.245 70.48 332.265 72.64L335.925 63.82C331.845 61.42 326.205 60.16 320.685 60.16C308.505 60.16 302.085 66.1 302.085 73.78C302.085 76.72 302.865 79 304.365 80.74C305.865 82.48 307.725 83.68 309.825 84.46C311.925 85.24 314.565 86.02 317.745 86.68C323.505 87.94 325.965 88.78 325.965 91.18C325.965 93.46 323.685 94.6 319.125 94.6C314.325 94.6 309.045 92.92 305.265 90.46L301.365 99.22C303.345 100.6 305.985 101.74 309.165 102.58C312.345 103.42 315.645 103.84 319.065 103.84Z" fill="#022B52"/>
<path d="M263.414 171.229C262.967 171.228 262.526 171.136 262.118 170.958C260.066 170.045 258.067 169.021 256.127 167.892C254.083 166.683 252.502 165.525 252.437 165.477C248.436 162.624 245.309 159.393 243.19 155.895C242.204 154.251 241.396 152.508 240.78 150.694C238.318 143.501 241.865 135.719 248.88 133.01C250.792 132.29 252.843 132.008 254.88 132.184C256.918 132.361 258.889 132.993 260.647 134.032L260.712 134.071C260.822 134.139 261.295 134.439 261.914 134.9C264.907 130.663 269.757 128 274.873 128C276.716 127.996 278.543 128.335 280.261 129C282.186 129.741 283.94 130.862 285.419 132.295C286.898 133.727 288.072 135.442 288.869 137.337C290.546 141.231 290.616 145.625 289.063 149.569C289.063 149.569 288.675 150.569 288.539 150.888C287.776 152.68 286.837 154.393 285.736 156.001C281.469 161.992 274.429 167.002 264.71 170.942C264.303 171.127 263.861 171.225 263.414 171.229Z" fill="white"/>
<path d="M254.083 163.543L254.692 160.261L255.768 154.751H245.559C247.046 157.198 249.599 160.342 254.083 163.543ZM279.25 131.837C272.751 129.332 265.358 132.805 262.63 139.575L261.872 143.467L260.576 150.108H285.953C286.177 149.586 286.342 149.106 286.459 148.841C289.158 141.942 285.785 134.336 279.25 131.837ZM259.251 136.674C257.855 135.836 256.286 135.326 254.662 135.181C253.039 135.037 251.404 135.263 249.881 135.842C244.351 137.979 241.412 144.273 243.401 150.115H256.649L258.337 141.352L259.251 136.674ZM258.211 162.386L257.54 165.806C259.373 166.873 261.263 167.842 263.2 168.708C263.265 168.742 263.337 168.76 263.411 168.763C263.475 168.759 263.538 168.741 263.595 168.711C274.935 164.12 280.533 158.83 283.426 154.757H259.698L258.211 162.386Z" fill="#DF041F"/>
<g style="mix-blend-mode:multiply" opacity="0.2">
<g style="mix-blend-mode:multiply" opacity="0.2">
<path d="M251.964 141.922C252.934 141.401 254 141.082 255.097 140.985C256.194 140.888 257.3 141.015 258.347 141.358L259.251 136.68C257.855 135.842 256.286 135.332 254.662 135.188C253.039 135.044 251.404 135.269 249.881 135.848C244.351 137.986 241.412 144.279 243.401 150.121H247.681C247.517 148.488 247.834 146.843 248.595 145.387C249.356 143.93 250.527 142.727 251.964 141.922Z" fill="#00B6ED"/>
</g>
<g style="mix-blend-mode:multiply" opacity="0.2">
<path d="M249.404 154.751H245.559C247.046 157.198 249.599 160.342 254.083 163.543L254.692 160.261C251.75 158.156 250.205 156.115 249.404 154.751Z" fill="#00B6ED"/>
</g>
<g style="mix-blend-mode:multiply" opacity="0.2">
<path d="M265.487 165.136C265.444 165.161 265.397 165.177 265.348 165.185C265.299 165.189 265.25 165.18 265.206 165.159C262.792 164.454 260.45 163.526 258.211 162.386L257.54 165.807C259.373 166.874 261.263 167.842 263.2 168.708C263.265 168.742 263.337 168.761 263.411 168.763C263.475 168.759 263.538 168.741 263.595 168.712C274.935 164.121 280.533 158.83 283.426 154.758H277.702C275.622 157.795 271.983 161.445 265.487 165.136Z" fill="#00B6ED"/>
</g>
<g style="mix-blend-mode:multiply" opacity="0.2">
<path d="M279.251 131.837C272.751 129.332 265.358 132.805 262.63 139.575L261.872 143.467C263.236 138.118 268.426 134.8 273.536 136.051C278.645 137.302 281.959 142.616 280.621 147.98C280.481 148.708 280.296 149.426 280.067 150.131H285.983C286.207 149.609 286.372 149.128 286.488 148.864C289.158 141.942 285.785 134.336 279.251 131.837Z" fill="#00B6ED"/>
</g>
</g>
<path d="M55.2977 159H58.6257L66.5557 140.8H63.1757L57.0657 154.84L51.0077 140.8H47.3417L55.2977 159ZM68.2912 159H71.5412V145.116H68.2912V159ZM69.9292 142.828C71.1512 142.828 72.0092 141.944 72.0092 140.8C72.0092 139.734 71.0992 138.928 69.9292 138.928C68.7592 138.928 67.8492 139.76 67.8492 140.878C67.8492 141.996 68.7592 142.828 69.9292 142.828ZM80.0968 159.182C82.0468 159.182 83.5808 158.792 84.6988 158.012C85.8168 157.232 86.3888 156.192 86.3888 154.892C86.3888 153.904 86.1288 153.15 85.6348 152.604C84.5948 151.538 83.2688 151.2 81.0588 150.862C78.8488 150.472 77.8088 150.186 77.8088 149.146C77.8088 148.21 78.8228 147.586 80.7208 147.586C82.2028 147.586 83.5288 147.924 84.6988 148.626L85.9468 146.156C84.7248 145.428 82.6448 144.96 80.7468 144.96C78.8748 144.96 77.3928 145.35 76.3008 146.13C75.1828 146.936 74.6368 147.976 74.6368 149.302C74.6368 150.316 74.8968 151.096 75.4428 151.642C76.4828 152.786 77.8088 153.098 80.0968 153.436C82.2808 153.774 83.2168 154.034 83.2168 154.996C83.2168 156.01 82.2548 156.53 80.3048 156.53C78.6148 156.53 76.7168 155.984 75.4688 155.152L74.2208 157.622C74.8708 158.064 75.7288 158.454 76.7948 158.74C77.8608 159.026 78.9788 159.182 80.0968 159.182ZM89.1877 159H92.4377V145.116H89.1877V159ZM90.8257 142.828C92.0477 142.828 92.9057 141.944 92.9057 140.8C92.9057 139.734 91.9957 138.928 90.8257 138.928C89.6557 138.928 88.7457 139.76 88.7457 140.878C88.7457 141.996 89.6557 142.828 90.8257 142.828ZM97.1453 147.82V154.502C97.1453 157.544 98.8873 159.182 101.929 159.182C103.151 159.182 104.295 158.87 105.049 158.246L104.139 155.932C103.645 156.322 103.047 156.504 102.319 156.504C101.071 156.504 100.395 155.776 100.395 154.424V147.82H104.113V145.22H100.395V142.048H97.1453V145.22H94.8573V147.82H97.1453ZM108.035 159H115.991C117.941 159 119.657 158.61 121.165 157.856C124.181 156.348 125.923 153.514 125.923 149.9C125.923 148.106 125.507 146.494 124.675 145.116C123.011 142.36 119.865 140.8 115.991 140.8H108.035V159ZM111.415 156.14V143.66H115.835C119.891 143.66 122.517 146.13 122.517 149.9C122.517 153.67 119.891 156.14 115.835 156.14H111.415ZM142.255 152.136C142.255 147.846 139.317 144.96 135.235 144.96C133.857 144.96 132.635 145.272 131.543 145.87C129.359 147.092 128.059 149.354 128.059 152.058C128.059 156.192 131.127 159.182 135.729 159.182C138.121 159.182 140.071 158.402 141.319 156.92L139.577 154.918C138.589 155.932 137.341 156.426 135.807 156.426C133.415 156.426 131.699 155.152 131.309 153.098H142.203C142.229 152.682 142.255 152.37 142.255 152.136ZM135.235 147.56C137.341 147.56 138.875 148.938 139.161 150.94H131.283C131.595 148.886 133.155 147.56 135.235 147.56ZM148.627 159V151.98C148.627 149.276 150.109 147.794 152.501 147.794C154.607 147.794 155.803 149.042 155.803 151.46V159H159.053V151.044C159.053 147.014 156.765 144.96 153.255 144.96C151.201 144.96 149.537 145.636 148.471 146.91V145.116H145.377V159H148.627ZM163.176 145.116V159H166.426V151.954C166.426 149.25 167.83 147.794 170.04 147.794C172.042 147.794 173.16 149.042 173.16 151.46V159H176.41V151.954C176.41 149.276 177.84 147.794 180.024 147.794C182.026 147.794 183.144 149.042 183.144 151.46V159H186.394V151.044C186.394 146.988 184.21 144.96 180.7 144.96C178.516 144.96 176.644 145.818 175.5 147.274C174.564 145.74 172.9 144.96 170.82 144.96C168.922 144.96 167.31 145.636 166.27 146.884V145.116H163.176ZM194.733 159.182C196.813 159.182 198.295 158.532 199.101 157.31V159H202.169V150.862C202.169 146.91 199.933 144.96 195.851 144.96C193.563 144.96 191.431 145.558 189.975 146.676L191.249 149.042C192.289 148.184 193.901 147.664 195.461 147.664C197.749 147.664 198.919 148.73 198.919 150.68V150.888H195.331C191.353 150.888 189.559 152.526 189.559 155.022C189.559 157.44 191.587 159.182 194.733 159.182ZM192.757 154.892C192.757 153.67 193.693 153.046 195.565 153.046H198.919V154.658C198.399 156.036 197.047 156.816 195.409 156.816C193.745 156.816 192.757 156.062 192.757 154.892ZM209.434 145.116H206.34V159H209.59V152.266C209.59 149.484 211.098 147.976 213.62 147.976C213.854 147.976 214.088 148.002 214.374 148.054V144.96C212.008 144.96 210.37 145.688 209.434 147.144V145.116ZM217.131 159H220.381V155.334L222.799 153.046L227.609 159H231.561L225.217 150.94L231.015 145.116H227.115L220.381 151.356V139.708H217.131V159Z" fill="#022B52"/>
</svg>
