<svg width="51" height="44" viewBox="0 0 51 44" fill="none" xmlns="http://www.w3.org/2000/svg">
<path d="M23.4136 43.2287C22.9675 43.2281 22.5263 43.1359 22.1176 42.9578C20.0665 42.0445 18.0667 41.021 16.1272 39.8917C14.0828 38.6827 12.5018 37.5252 12.437 37.4769C8.43577 34.6236 5.30933 31.393 3.19047 27.8949C2.20372 26.2515 1.39568 24.5082 0.780026 22.6944C-1.68226 15.5015 1.86537 7.71852 8.87964 5.01028C10.7921 4.28978 12.8432 4.00752 14.8804 4.18446C16.9177 4.3614 18.8886 4.993 20.6468 6.03231L20.7115 6.071C20.8217 6.13871 21.2947 6.43855 21.9135 6.8996C24.9071 2.66314 29.7572 3.79876e-05 34.8729 3.79876e-05C36.7158 -0.00413084 38.5432 0.334857 40.2608 0.999506C42.1856 1.7413 43.9401 2.86208 45.4192 4.29472C46.8984 5.72735 48.0718 7.44236 48.869 9.33701C50.5464 13.2306 50.6162 17.6248 49.0634 21.5692C49.0634 21.5692 48.6746 22.5687 48.5386 22.8879C47.7762 24.6802 46.8375 26.393 45.7361 28.0013C41.4692 33.9916 34.429 39.0019 24.7095 42.9417C24.3028 43.1275 23.8611 43.2253 23.4136 43.2287V43.2287Z" fill="white"/>
<path d="M14.0831 35.5431L14.6922 32.261L15.7678 26.751H5.55907C7.04616 29.1981 9.59916 32.3416 14.0831 35.5431ZM39.2502 3.83742C32.7511 1.3323 25.3578 4.80465 22.6298 11.5752L21.8717 15.4667L20.5757 22.1083H45.9534C46.177 21.586 46.3422 21.1057 46.4589 20.8413C49.1576 13.9417 45.785 6.33609 39.2502 3.83742V3.83742ZM19.2507 8.67356C17.8549 7.83586 16.2858 7.32558 14.6623 7.18145C13.0388 7.03732 11.4037 7.26313 9.88101 7.84174C4.3506 9.97931 1.41206 16.2727 3.40133 22.1148H16.6491L18.337 13.3517L19.2507 8.67356ZM18.2107 34.3857L17.54 37.8065C19.3734 38.8734 21.2627 39.842 23.2 40.7081C23.2654 40.7415 23.3372 40.7602 23.4106 40.7629C23.4751 40.7588 23.538 40.7412 23.5953 40.7114C34.9347 36.1203 40.5332 30.8295 43.4264 26.7575H19.6978L18.2107 34.3857Z" fill="#DF041F"/>
<g style="mix-blend-mode:multiply" opacity="0.2">
<g style="mix-blend-mode:multiply" opacity="0.2">
<path d="M11.9642 13.9222C12.9336 13.4012 13.9996 13.0824 15.097 12.9853C16.1945 12.8883 17.3002 13.0151 18.3467 13.358L19.2506 8.67985C17.8549 7.84216 16.2858 7.33188 14.6623 7.18775C13.0388 7.04362 11.4037 7.26943 9.88101 7.84804C4.3506 9.98561 1.41207 16.279 3.40133 22.1211H7.68116C7.5168 20.4881 7.83441 18.8428 8.59512 17.3866C9.35582 15.9304 10.5266 14.7265 11.9642 13.9222V13.9222Z" fill="#00B6ED"/>
</g>
<g style="mix-blend-mode:multiply" opacity="0.2">
<path d="M9.40428 26.751H5.55859C7.04568 29.1981 9.59867 32.3416 14.0826 35.5431L14.6917 32.261C11.7499 30.1556 10.2045 28.1148 9.40428 26.751Z" fill="#00B6ED"/>
</g>
<g style="mix-blend-mode:multiply" opacity="0.2">
<path d="M25.4874 37.1362C25.4444 37.1608 25.3971 37.1772 25.3481 37.1845C25.2991 37.1891 25.2498 37.1801 25.2055 37.1587C22.792 36.4539 20.4502 35.5256 18.2107 34.386L17.54 37.8068C19.3734 38.8737 21.2628 39.8423 23.2001 40.7084C23.2654 40.7418 23.3373 40.7605 23.4106 40.7633C23.4751 40.7591 23.538 40.7415 23.5953 40.7117C34.9348 36.1206 40.5332 30.8298 43.4264 26.7578H37.7016C35.6216 29.7949 31.9833 33.4446 25.4874 37.1362Z" fill="#00B6ED"/>
</g>
<g style="mix-blend-mode:multiply" opacity="0.2">
<path d="M39.2506 3.83742C32.7515 1.3323 25.3582 4.80465 22.6302 11.5752L21.8721 15.4667C23.236 10.1179 28.4263 6.80036 33.5355 8.05131C38.6447 9.30226 41.9591 14.6156 40.621 19.9804C40.4814 20.708 40.2964 21.4262 40.067 22.1309H45.983C46.2065 21.6086 46.3718 21.1282 46.4884 20.8638C49.158 13.9417 45.7854 6.33609 39.2506 3.83742Z" fill="#00B6ED"/>
</g>
</g>
</svg>
