<svg width="22" height="20" viewBox="0 0 22 20" fill="none" xmlns="http://www.w3.org/2000/svg">
<path d="M11.0005 1.73169C9.79864 0.618099 8.22553 5.17434e-05 6.59284 0C5.72868 0.000906638 4.87322 0.174013 4.0757 0.509357C3.27818 0.844701 2.55435 1.33566 1.94585 1.95398C-0.649536 4.58042 -0.648433 8.68845 1.94806 11.3038L10.0353 19.4531C10.2229 19.7855 10.5846 20 11.0005 20C11.1712 19.9983 11.3392 19.9563 11.4909 19.8774C11.6426 19.7984 11.7739 19.6847 11.8741 19.5454L20.0529 11.3038C22.6494 8.68734 22.6494 4.58042 20.0507 1.94954C19.4425 1.33235 18.7193 0.842388 17.9225 0.507817C17.1258 0.173246 16.2713 0.000666452 15.4081 0C13.7755 0.000268933 12.2024 0.618287 11.0005 1.73169ZM18.491 3.52117C20.215 5.26731 20.2162 7.99489 18.4932 9.73213L11.0005 17.2824L3.50772 9.73213C1.78481 7.99489 1.78592 5.26731 3.50551 3.52562C4.3438 2.68534 5.4402 2.22296 6.59284 2.22296C7.74549 2.22296 8.83748 2.68534 9.66915 3.5234L10.2207 4.07914C10.323 4.18244 10.4446 4.2644 10.5784 4.32032C10.7122 4.37624 10.8556 4.40503 11.0005 4.40503C11.1453 4.40503 11.2888 4.37624 11.4226 4.32032C11.5564 4.2644 11.678 4.18244 11.7803 4.07914L12.3318 3.5234C13.9996 1.84617 16.8255 1.85062 18.491 3.52117Z" fill="#E70013"/>
</svg>
