<svg width="16" height="18" viewBox="0 0 16 18" fill="none" xmlns="http://www.w3.org/2000/svg">
<path d="M1.77778 18H14.2222C14.6937 18 15.1459 17.8104 15.4793 17.4728C15.8127 17.1353 16 16.6774 16 16.2001V8.10039C16.0007 7.98195 15.9782 7.86454 15.934 7.75489C15.8898 7.64524 15.8246 7.54551 15.7422 7.46142L8.6311 0.261703C8.46456 0.0940839 8.23927 0 8.00444 0C7.76961 0 7.54432 0.0940839 7.37777 0.261703L0.266666 7.46142C0.182677 7.54477 0.115859 7.64416 0.0700846 7.75385C0.0243099 7.86353 0.000488222 7.98132 0 8.10039V16.2001C0 16.6774 0.187301 17.1353 0.520698 17.4728C0.854096 17.8104 1.30628 18 1.77778 18ZM6.22222 16.2001V11.7002H9.77777V16.2001H6.22222ZM1.77778 8.46938L7.99999 2.16963L14.2222 8.46938V16.2001H11.5555V11.7002C11.5555 11.2229 11.3682 10.7651 11.0348 10.4275C10.7014 10.09 10.2493 9.90032 9.77777 9.90032H6.22222C5.75072 9.90032 5.29854 10.09 4.96514 10.4275C4.63174 10.7651 4.44444 11.2229 4.44444 11.7002V16.2001H1.77778V8.46938Z" fill="#585858"/>
</svg>
